<svg xmlns="http://www.w3.org/2000/svg" viewBox="0 0 500 500">
  <rect width="500" height="500" fill="#faf3d9"/>
  <circle cx="420" cy="90" r="46" fill="#f6d365"/>
  <rect x="0" y="360" width="500" height="140" fill="#d9b65a"/>
  <g stroke="#a67c1e" stroke-width="5" stroke-linecap="round">
    <line x1="150" y1="400" x2="150" y2="190"/>
    <line x1="220" y1="400" x2="220" y2="150"/>
    <line x1="290" y1="400" x2="290" y2="175"/>
    <line x1="360" y1="400" x2="360" y2="205"/>
  </g>
  <g fill="#e8c34a">
    <ellipse cx="140" cy="180" rx="10" ry="18"/>
    <ellipse cx="160" cy="195" rx="10" ry="18"/>
    <ellipse cx="140" cy="215" rx="10" ry="18"/>
    <ellipse cx="160" cy="230" rx="10" ry="18"/>
    <ellipse cx="210" cy="140" rx="10" ry="18"/>
    <ellipse cx="230" cy="155" rx="10" ry="18"/>
    <ellipse cx="210" cy="175" rx="10" ry="18"/>
    <ellipse cx="230" cy="190" rx="10" ry="18"/>
    <ellipse cx="280" cy="165" rx="10" ry="18"/>
    <ellipse cx="300" cy="180" rx="10" ry="18"/>
    <ellipse cx="280" cy="200" rx="10" ry="18"/>
    <ellipse cx="300" cy="215" rx="10" ry="18"/>
    <ellipse cx="350" cy="195" rx="10" ry="18"/>
    <ellipse cx="370" cy="210" rx="10" ry="18"/>
    <ellipse cx="350" cy="230" rx="10" ry="18"/>
    <ellipse cx="370" cy="245" rx="10" ry="18"/>
  </g>
  <text x="250" y="470" font-family="sans-serif" font-size="26" font-weight="700" fill="#5c4413" text-anchor="middle">Grains</text>
</svg>
