<svg xmlns="http://www.w3.org/2000/svg" viewBox="0 0 500 500">
  <rect width="500" height="500" fill="#f4f6df"/>
  <rect x="0" y="400" width="500" height="100" fill="#6b7a2f"/>
  <line x1="250" y1="400" x2="250" y2="230" stroke="#5c6b1e" stroke-width="10" stroke-linecap="round"/>
  <g fill="#f2b23c">
    <ellipse cx="250" cy="150" rx="18" ry="46" transform="rotate(0 250 150)"/>
    <ellipse cx="250" cy="150" rx="18" ry="46" transform="rotate(30 250 150)"/>
    <ellipse cx="250" cy="150" rx="18" ry="46" transform="rotate(60 250 150)"/>
    <ellipse cx="250" cy="150" rx="18" ry="46" transform="rotate(90 250 150)"/>
    <ellipse cx="250" cy="150" rx="18" ry="46" transform="rotate(120 250 150)"/>
    <ellipse cx="250" cy="150" rx="18" ry="46" transform="rotate(150 250 150)"/>
    <ellipse cx="250" cy="150" rx="18" ry="46" transform="rotate(180 250 150)"/>
    <ellipse cx="250" cy="150" rx="18" ry="46" transform="rotate(210 250 150)"/>
    <ellipse cx="250" cy="150" rx="18" ry="46" transform="rotate(240 250 150)"/>
    <ellipse cx="250" cy="150" rx="18" ry="46" transform="rotate(270 250 150)"/>
    <ellipse cx="250" cy="150" rx="18" ry="46" transform="rotate(300 250 150)"/>
    <ellipse cx="250" cy="150" rx="18" ry="46" transform="rotate(330 250 150)"/>
  </g>
  <circle cx="250" cy="150" r="34" fill="#6b4226"/>
  <line x1="180" y1="330" x2="205" y2="270" stroke="#5c6b1e" stroke-width="8" stroke-linecap="round"/>
  <line x1="320" y1="330" x2="295" y2="270" stroke="#5c6b1e" stroke-width="8" stroke-linecap="round"/>
  <ellipse cx="170" cy="335" rx="22" ry="12" fill="#7a8a3a"/>
  <ellipse cx="330" cy="335" rx="22" ry="12" fill="#7a8a3a"/>
  <text x="250" y="470" font-family="sans-serif" font-size="26" font-weight="700" fill="#3e4a15" text-anchor="middle">Oilseeds</text>
</svg>
